<svg version="1.2" xmlns="http://www.w3.org/2000/svg" viewBox="0 0 1918 1112" width="1918" height="1112"><style>.a{fill:#fff}</style><path fill-rule="evenodd" class="a" d="m-124-196h2200v1466h-2200z"/><path  d="m1024 735.2l63-101.7h35.4c1.8 0 3.3-1.5 3.3-3.3v-38.2c0-1.8-1.5-3.3-3.3-3.3h-7.7l30.5-49.3h31.5c1.8 0 3.2-1.4 3.2-3.2v-38.3c0-1.8-1.4-3.2-3.2-3.2h-3.8l30.9-50c68.3 0 113.4 0 113.4 0 61 0 108.8-24.3 108.8-39.9 0-15.6-47.8-39.9-108.8-39.9 0 0-45.1 0-113.4 0l-30.9-50h3.8c1.8 0 3.2-1.4 3.2-3.2v-38.2c0-1.8-1.4-3.3-3.2-3.3h-31.5l-30.5-49.3h7.7c1.8 0 3.3-1.5 3.3-3.3v-38.2c0-1.8-1.5-3.2-3.3-3.2h-35.4l-63-101.8c-2.1-3.3-5.8-5.4-9.7-5.4h-26.9c-2.7 0-4.6 2.7-3.7 5.3l54.7 151.7h-4c-1.2 0-2.4 0.2-3.2 0.7-0.9 0.5-1.4 1.2-1.4 1.9 0 1.4 2.3 2.6 4.6 2.6h5.9l19.2 53.3v23.5h-5.9c-1.3 0-2.4 0.3-3.3 0.8-0.9 0.5-1.4 1.1-1.4 1.9 0 1.4 2.3 2.6 4.7 2.6h5.9v51.6c-14.7 0-29.7 0-44.8 0-31 0-57.7 1.3-80.6 3.5l-64.5-95.4c-1-1.4-2.6-2.3-4.4-2.3h-16.5c-3.4 0-5.9 3.1-5.2 6.4l10.4 50h-3.7c-1.2 0-2.4 0.3-3.2 0.8-0.9 0.4-1.4 1.1-1.4 1.8 0 1.5 2.3 2.6 4.6 2.6h4.9l7.3 35h-4c-1.2 0-2.4 0.3-3.2 0.8-0.9 0.5-1.4 1.1-1.4 1.9 0 1.4 2.2 2.6 4.6 2.6h5.1l1.5 7.1c-25.3 6.3-41 13.3-49.9 18.3h-30.3c-3.2 0-6.2 0.8-8.4 2-2.3 1.2-3.7 2.9-3.7 4.8 0 3.8 5.9 6.8 12.1 6.8h30.3c8.9 5 24.6 12 49.9 18.3l-1.5 7.1h-5.1c-2.4 0-4.6 1.2-4.6 2.7 0 0.7 0.5 1.3 1.4 1.8 0.8 0.5 2 0.8 3.2 0.8h4l-7.3 35h-4.9c-2.4 0-4.6 1.1-4.6 2.6 0 0.7 0.5 1.4 1.4 1.8 0.8 0.5 2 0.8 3.2 0.8h3.7l-10.4 50c-0.7 3.3 1.8 6.4 5.2 6.4h16.5c1.8 0 3.4-0.8 4.4-2.3l64.5-95.4c22.9 2.2 49.6 3.5 80.5 3.5 15.2 0 30.2 0 44.9 0v51.6h-5.9c-2.4 0-4.7 1.2-4.7 2.7 0 0.7 0.5 1.3 1.4 1.8 0.9 0.5 2 0.8 3.3 0.8h5.9v23.5l-19.2 53.3h-5.9c-2.3 0-4.6 1.2-4.6 2.6 0 0.8 0.5 1.4 1.4 1.9 0.8 0.5 2 0.8 3.2 0.8h4l-54.7 151.6c-0.9 2.6 1 5.3 3.7 5.3h26.9c3.9 0 7.6-2 9.7-5.4z"/><path  d="m1685.8 504.7c85.1 33.5 207.7 102.3 180 211.2-21.5 75.5-107.6 127.7-174.5 159.8-241.6 111.4-566.6 137.7-830.7 127.2-186.9-9.2-375.6-34.6-551.1-102.5-17.7-7.1-36.2-15.1-53.5-23.5-62.4-30.6-136-76.6-163.7-143.3-22.6-53.1-5.5-108.9 32.6-149.5 12.3-13.7 26.3-25.7 41.1-36.7 48.8-35.6 105.3-59.9 162-79.4 115.7-38.7 236.3-58.2 357.3-67.3 2.5-0.2 4.7 1.7 4.8 4.1 0.2 2.4-1.5 4.4-3.7 4.8-59.3 10.2-118.2 22-176.3 36.7-108.9 27.6-322.6 93.4-372.1 199.8-15.5 34.8-5.7 67.6 17.6 95.7 51.4 61.2 150.7 100 226.1 124.2 38.6 12.3 78 22.4 117.5 31.2 207.1 44.8 420.8 55.9 632.1 46.3 162.8-8.8 326.7-29.4 482.1-80.1 41.7-13.8 82.9-30.5 121.2-51.6 31.6-17.6 61-38 83.8-65.3 47.7-58.4 27.5-115.3-23.4-163.6-32.5-30.6-71.1-53.8-110.9-74.5-2.3-1.2-0.6-4.6 1.7-3.7z"/></svg>